<svg enable-background="new 0 0 126.6 105.3" viewBox="0 0 126.6 105.3" xmlns="http://www.w3.org/2000/svg" xmlns:xlink="http://www.w3.org/1999/xlink"><linearGradient id="a" gradientUnits="userSpaceOnUse" x1="58.068" x2="73.876" y1=".7" y2="105.616"><stop offset="0" stop-color="#ff6b4a"/><stop offset="1" stop-color="#c93241"/></linearGradient><path d="m91.8 0c-10.8 0-19.2 3.2-25 9.5-1.5 1.6-1.4 4.1.2 5.6s4.1 1.4 5.6-.2c4.3-4.7 10.6-6.9 19.2-6.9 15.3 0 26.9 11.7 26.9 27.1 0 18.2-13.4 31.2-25.1 40.5-8 6.4-15.9 11.4-16.7 11.9l-13.6 8.5-13.6-8.5c-.9-.6-8.6-5.5-16.7-12-11.7-9.3-25.1-22.3-25.1-40.5 0-15.5 11.6-27.1 26.9-27.1 9.7 0 16.5 7.1 23 14.4l-4.8 4.8c-2.7-1.7-5.8-2.6-9.1-2.6-4.6 0-9 1.8-12.2 5.1l-10.5 10.5c-1.5 1.5-1.5 4 0 5.6 1.5 1.5 4 1.5 5.6 0l10.5-10.5c1.8-1.8 4.1-2.7 6.6-2.7 1.1 0 2.2.2 3.2.6l-16.7 16.7c-1.5 1.5-1.5 4 0 5.6.8.8 1.8 1.2 2.8 1.2s2-.4 2.8-1.2l16.8-16.8c.4 1 .6 2.1.6 3.2 0 2.5-1 4.9-2.7 6.6l-10.9 10.8c-1.5 1.5-1.5 4 0 5.6.8.8 1.8 1.2 2.8 1.2s2-.4 2.8-1.2l10.7-10.8c3.3-3.3 5.1-7.6 5.1-12.2 0-3.3-.9-6.4-2.6-9.1l4.6-4.6 34.6 34.8 2.4-5c.3-.6 7-15-4.2-26.3l-8.4-8.4-1.4-1.4c-3.5-3.5-9.7-4.6-14.5.2l-1.7 1.8-3.9-3.9-1.3-1.5c-7.1-8.2-16.1-18.4-30-18.4-19.5 0-34.8 15.4-34.8 35 0 21.6 15 36.3 28 46.7 8.4 6.7 16.6 11.9 17.5 12.4l17.8 11.1 17.8-11.1c1.5-.9 9.3-5.9 17.5-12.4 13.1-10.4 28-25.1 28-46.7 0-19.6-15.3-35-34.8-35zm-14.4 27.6c1.6-1.6 2.9-.7 3.3-.2l1.4 1.4c.8.8 2 2 8.4 8.5 3.6 3.7 4.4 7.9 4.1 11.3l-19-19.1z" fill="url(#a)"/></svg>